<svg width="163" height="25" viewBox="0 0 163 25" fill="none" xmlns="http://www.w3.org/2000/svg">
<path fill-rule="evenodd" clip-rule="evenodd" d="M6.73494 0H13.4699L6.73494 16H0L6.73494 0ZM25.3234 18.16V17.176H32.9825C34.1099 17.176 34.6735 16.632 34.6735 15.544V13.6C34.6735 12.688 34.2508 12.152 33.4053 11.992L28.0588 10.936C26.2352 10.584 25.3234 9.40799 25.3234 7.40799V6.11199C25.3234 3.66399 26.5916 2.43999 29.1281 2.43999H35.146L36.265 3.27999V4.26399H29.1032C27.9759 4.26399 27.4122 4.80799 27.4122 5.89599V7.52799C27.4122 8.43999 27.835 8.97599 28.6805 9.13599L34.027 10.168C35.8506 10.52 36.7624 11.704 36.7624 13.72V15.328C36.7624 17.776 35.4942 19 32.9577 19H26.4424L25.3234 18.16ZM40.1463 15.4V2.43999H42.1357V6.51999H46.8606V8.19999H42.1357V15.64C42.1357 16.76 42.716 17.32 43.8765 17.32H47.1092V18.28L46.1145 19H43.8765C41.3897 19 40.1463 17.8 40.1463 15.4ZM49.785 15.4V10.12C49.785 7.71999 51.0284 6.51999 53.5151 6.51999H56.7479C59.2346 6.51999 60.478 7.71999 60.478 10.12V13.504H51.7744V15.64C51.7744 16.76 52.3546 17.32 53.5151 17.32H59.9806V18.28L58.9859 19H53.5151C51.0284 19 49.785 17.8 49.785 15.4ZM51.7744 11.944H58.4886V9.87999C58.4886 8.75999 57.9083 8.19999 56.7479 8.19999H53.5151C52.3546 8.19999 51.7744 8.75999 51.7744 9.87999V11.944ZM64.1639 15.592V1.23999H66.1533V15.784C66.1533 16.888 66.7335 17.472 67.894 17.536V19.192C65.4072 19.192 64.1639 17.992 64.1639 15.592ZM70.6235 15.592V1.23999H72.6129V15.784C72.6129 16.888 73.1931 17.472 74.3536 17.536V19.192C71.8669 19.192 70.6235 17.992 70.6235 15.592ZM80.2414 19C77.7381 19 76.4864 17.792 76.4864 15.376C76.4864 12.96 77.7381 11.752 80.2414 11.752H84.7922V9.87999C84.7922 8.75999 84.2119 8.19999 83.0514 8.19999H77.7298V7.23999L78.7245 6.51999H83.0514C85.5382 6.51999 86.7816 7.71999 86.7816 10.12V19H80.2414ZM78.4758 15.64C78.4758 16.76 79.0561 17.32 80.2165 17.32H84.7922V13.312H80.2165C79.0561 13.312 78.4758 13.872 78.4758 14.992V15.64ZM90.5612 19V7.95999C91.1414 6.99999 92.219 6.51999 93.794 6.51999H96.2807L97.2754 7.23999V8.19999H94.0675C93.3712 8.19999 92.8656 8.38399 92.5506 8.75199V19H90.5612ZM100.162 19V2.43999H111.352V4.26399H102.251V10.12H110.606V11.944H102.251V19H100.162ZM113.896 15.4V10.12C113.896 7.71999 115.139 6.51999 117.626 6.51999H121.108C123.594 6.51999 124.838 7.71999 124.838 10.12V15.4C124.838 17.8 123.594 19 121.108 19H117.626C115.139 19 113.896 17.8 113.896 15.4ZM115.886 15.64C115.886 16.76 116.466 17.32 117.626 17.32H121.108C122.268 17.32 122.848 16.76 122.848 15.64V9.87999C122.848 8.75999 122.268 8.19999 121.108 8.19999H117.626C116.466 8.19999 115.886 8.75999 115.886 9.87999V15.64ZM128.518 19V7.95999C129.098 6.99999 130.176 6.51999 131.751 6.51999H134.238L135.232 7.23999V8.19999H132.024C131.328 8.19999 130.823 8.38399 130.508 8.75199V19H128.518ZM137.671 15.4V10.12C137.671 7.71999 138.915 6.51999 141.402 6.51999H148.364V20.2C148.364 22.6 147.121 23.8 144.634 23.8H139.661L138.666 23.08V22.12H144.634C145.795 22.12 146.375 21.56 146.375 20.44V19H141.402C138.915 19 137.671 17.8 137.671 15.4ZM139.661 15.64C139.661 16.76 140.241 17.32 141.402 17.32H146.375V8.19999H141.402C140.241 8.19999 139.661 8.75999 139.661 9.87999V15.64ZM152.144 15.4V10.12C152.144 7.71999 153.388 6.51999 155.874 6.51999H159.107C161.594 6.51999 162.837 7.71999 162.837 10.12V13.504H154.134V15.64C154.134 16.76 154.714 17.32 155.874 17.32H162.34V18.28L161.345 19H155.874C153.388 19 152.144 17.8 152.144 15.4ZM154.134 11.944H160.848V9.87999C160.848 8.75999 160.268 8.19999 159.107 8.19999H155.874C154.714 8.19999 154.134 8.75999 154.134 9.87999V11.944ZM18.6505 9H11.9156L5.18066 25H11.9156L18.6505 9Z" fill="#000000" fill-opacity="0.9"/>
</svg>
