<svg width="160" height="26" viewBox="0 0 160 26" fill="none" xmlns="http://www.w3.org/2000/svg">
<path fill-rule="evenodd" clip-rule="evenodd" d="M11.1375 0C11.6106 0 11.9942 0.459473 11.9942 1.02637V24.9736C11.9942 25.5405 11.6106 26 11.1375 26C10.6644 26 10.2808 25.5405 10.2808 24.9736V1.02637C10.2808 0.459473 10.6644 0 11.1375 0ZM7.71061 4.10522C8.18377 4.10522 8.56734 4.5647 8.56734 5.13159V20.8684C8.56734 21.4353 8.18377 21.8948 7.71061 21.8948C7.23745 21.8948 6.85388 21.4353 6.85388 20.8684V5.13159C6.85388 4.5647 7.23745 4.10522 7.71061 4.10522ZM32.5495 17.4958V4.43994H30.0822V17.856C30.0822 18.7681 30.3563 19.5278 30.9046 20.136C31.4529 20.728 32.3585 21.0239 33.6212 21.0239C34.7677 21.0239 35.9142 21.0159 37.0606 21C38.2071 20.9839 39.3369 20.936 40.4501 20.856L40.3255 19.0081H34.1695C33.6212 19.0081 33.2142 18.8879 32.9483 18.6479C32.6825 18.3918 32.5495 18.0081 32.5495 17.4958ZM45.1252 17.3999V9.28784H42.7326V18.0959C42.7326 20.24 43.8458 21.312 46.0723 21.312C46.9861 21.312 47.8834 21.1279 48.764 20.76C49.59 20.4211 50.4302 19.9331 51.2844 19.2959L51.4557 21H53.3997V9.28784H50.9821V17.7673C50.1747 18.2529 49.4769 18.6265 48.8886 18.8879C48.2572 19.176 47.6175 19.3201 46.9695 19.3201C46.3049 19.3201 45.8314 19.176 45.5489 18.8879C45.2664 18.5999 45.1252 18.104 45.1252 17.3999ZM74.4651 9.81592C73.9168 9.27197 73.1109 9 72.0475 9C71.1835 9 70.3445 9.18384 69.5303 9.552C68.7859 9.88843 68.0207 10.3853 67.2347 11.0427C67.0965 10.5381 66.8648 10.1292 66.5395 9.81592C65.9912 9.27197 65.1937 9 64.1469 9C63.2663 9 62.4189 9.18384 61.6048 9.552C60.8349 9.8999 60.0429 10.4197 59.2285 11.1108L59.0875 9.28784H57.1186V21H59.5112V12.5977C60.0412 12.2263 60.4981 11.9312 60.882 11.7119C61.3472 11.4399 61.7626 11.248 62.1281 11.136C62.4937 11.0081 62.8758 10.9438 63.2746 10.9438C63.8728 10.9438 64.3214 11.0959 64.6205 11.3999C64.9195 11.688 65.0691 12.1838 65.0691 12.8879V21H67.3869V12.6169C67.9124 12.2515 68.3693 11.9575 68.7577 11.7358C69.2063 11.4639 69.6134 11.2639 69.9789 11.136C70.3445 11.0081 70.7266 10.9438 71.1254 10.9438C71.7734 10.9438 72.2303 11.104 72.4961 11.4241C72.7786 11.728 72.9198 12.2161 72.9198 12.8879V21H75.3125V12.2161C75.3125 11.1599 75.03 10.3599 74.4651 9.81592ZM81.4424 21V9.28784H79.0747V21H81.4424ZM81.5421 4.96802C81.5421 4.50391 81.3011 4.27197 80.8193 4.27197H79.6978C79.2159 4.27197 78.975 4.50391 78.975 4.96802V6.33594C78.975 6.80005 79.2159 7.03198 79.6978 7.03198H80.8193C81.3011 7.03198 81.5421 6.80005 81.5421 6.33594V4.96802ZM96.1951 12.2161C96.1951 10.072 95.0902 9 92.8803 9C91.9665 9 91.0443 9.19189 90.1139 9.57593C89.2278 9.94165 88.3418 10.4595 87.4558 11.1299L87.2726 9.28784H85.2788V21H87.6714V12.6489C88.5624 12.1414 89.335 11.741 89.9892 11.448C90.7037 11.1121 91.4182 10.9438 92.1326 10.9438C92.7308 10.9438 93.1545 11.0879 93.4037 11.376C93.6529 11.6479 93.7775 12.1519 93.7775 12.8879V21H96.1951V12.2161ZM108.057 9.35986C107.426 9.11987 106.645 9 105.714 9C105.116 9 104.46 9.02393 103.746 9.07202C103.031 9.11987 102.325 9.18384 101.627 9.26392C101.356 9.2959 101.094 9.32886 100.841 9.36328L100.587 9.39868C100.494 9.41187 100.403 9.42529 100.314 9.43896L100.182 9.45898L100.005 9.48706L99.7581 9.52783L99.9825 11.1838C100.913 11.1199 101.852 11.0559 102.799 10.9919C103.762 10.928 104.56 10.896 105.191 10.896C106.121 10.896 106.753 11.0479 107.085 11.3521C107.417 11.656 107.584 12.1519 107.584 12.8398V13.7759H102.624C101.544 13.7759 100.697 14.032 100.082 14.5439C99.484 15.0559 99.1849 15.7681 99.1849 16.6799V17.9519C99.1849 18.656 99.3428 19.2559 99.6585 19.752C99.9742 20.2319 100.406 20.5999 100.954 20.856C101.519 21.0959 102.167 21.2161 102.898 21.2161C103.58 21.2161 104.202 21.1199 104.767 20.928C105.349 20.7358 105.872 20.4958 106.337 20.208C106.819 19.9199 107.226 19.624 107.559 19.3201C107.653 19.2292 107.741 19.1421 107.822 19.0588L108.107 21H110.001V12.8398C110.001 11.864 109.835 11.0959 109.503 10.5359C109.187 9.97583 108.705 9.58398 108.057 9.35986ZM107.584 17.7021V15.4133L103.148 15.4319C102.583 15.448 102.184 15.592 101.951 15.864C101.735 16.1199 101.627 16.48 101.627 16.9438V17.6641C101.627 18.24 101.769 18.6641 102.051 18.936C102.35 19.1919 102.815 19.3201 103.447 19.3201C103.912 19.3201 104.427 19.24 104.992 19.0798C105.573 18.9041 106.155 18.6479 106.736 18.312C107.034 18.1318 107.316 17.9285 107.584 17.7021ZM117.562 21V6.50391H123.045V4.43994H117.562H115.07H109.612V6.50391H115.07V21H117.562ZM131.933 9.98389C131.103 9.32788 129.749 9 127.871 9C126.542 9 125.453 9.19189 124.606 9.57593C123.759 9.94385 123.136 10.5759 122.737 11.4719C122.338 12.3679 122.139 13.584 122.139 15.1199C122.139 16.592 122.338 17.7839 122.737 18.696C123.136 19.592 123.767 20.248 124.631 20.6641C125.495 21.0798 126.641 21.2878 128.07 21.2878C128.569 21.2878 129.117 21.2639 129.715 21.2161C130.313 21.168 130.895 21.0959 131.46 21C132.025 20.8879 132.507 20.752 132.905 20.592L132.656 19.0798C132.008 19.1599 131.285 19.2319 130.488 19.2959C129.707 19.344 129.001 19.3679 128.369 19.3679C127.472 19.3679 126.749 19.248 126.201 19.0081C125.669 18.7681 125.279 18.3359 125.03 17.7119C124.882 17.3052 124.781 16.7852 124.727 16.1519H130.114C131.211 16.1519 132 15.864 132.482 15.2878C132.98 14.7119 133.221 13.896 133.205 12.8398C133.205 11.5759 132.781 10.624 131.933 9.98389ZM124.687 14.4958H129.491C130.039 14.4958 130.397 14.3279 130.563 13.9919C130.729 13.656 130.812 13.272 130.812 12.8398C130.795 12.1199 130.571 11.6079 130.139 11.304C129.724 11 129.001 10.8479 127.971 10.8479C127.123 10.8479 126.459 10.968 125.977 11.208C125.495 11.448 125.154 11.864 124.955 12.4561C124.799 12.9612 124.71 13.6411 124.687 14.4958ZM141.773 9.0022C141.69 9.00073 141.608 9 141.528 9C140.099 9 138.952 9.19995 138.088 9.59985C137.241 9.98389 136.618 10.624 136.219 11.52C135.837 12.416 135.646 13.616 135.646 15.1199C135.646 16.6399 135.837 17.8479 136.219 18.7439C136.601 19.6399 137.216 20.2878 138.063 20.688C138.927 21.0879 140.074 21.2878 141.503 21.2878C142.234 21.2878 142.973 21.2319 143.721 21.1199C144.469 21.0239 145.15 20.864 145.765 20.6399L145.54 19.104C145.108 19.168 144.66 19.2161 144.195 19.248L143.935 19.2651C143.819 19.2727 143.705 19.2795 143.593 19.2859L143.379 19.2976L143.216 19.3057C143.108 19.311 143.002 19.3159 142.899 19.3201C142.5 19.3359 142.176 19.344 141.927 19.344C140.996 19.344 140.257 19.2239 139.708 18.9839C139.177 18.7439 138.795 18.312 138.562 17.688C138.329 17.064 138.213 16.208 138.213 15.1199C138.213 14.032 138.329 13.1838 138.562 12.5759C138.795 11.968 139.177 11.5439 139.708 11.304C140.257 11.0479 140.996 10.9199 141.927 10.9199C142.359 10.9199 142.874 10.936 143.472 10.968C144.087 10.9839 144.685 11.0159 145.266 11.064L145.565 9.57593C145.15 9.41602 144.693 9.2959 144.195 9.21606C143.713 9.13599 143.239 9.07983 142.774 9.04785C142.419 9.02271 142.086 9.00757 141.773 9.0022ZM159.452 12.2161C159.452 10.072 158.347 9 156.137 9C155.223 9 154.293 9.19995 153.345 9.59985C152.49 9.96753 151.635 10.4636 150.78 11.0879C150.825 10.8367 150.858 10.5647 150.878 10.272C150.902 10.0415 150.92 9.80371 150.933 9.55859C150.946 9.29297 150.953 9.0188 150.953 8.73584L150.928 4.19995H148.535V21H150.928V12.6414C151.819 12.1079 152.592 11.7024 153.246 11.4241C153.96 11.104 154.675 10.9438 155.389 10.9438C155.987 10.9438 156.403 11.0879 156.635 11.376C156.885 11.6479 157.009 12.1519 157.009 12.8879V21H159.452V12.2161ZM15.4211 5.13159C15.4211 4.5647 15.0375 4.10522 14.5644 4.10522C14.0912 4.10522 13.7076 4.5647 13.7076 5.13159V20.8684C13.7076 21.4353 14.0912 21.8948 14.5644 21.8948C15.0375 21.8948 15.4211 21.4353 15.4211 20.8684V5.13159ZM4.28361 6.84204C4.75677 6.84204 5.14034 7.30151 5.14034 7.86841V18.1316C5.14034 18.6982 4.75677 19.158 4.28361 19.158C3.81045 19.158 3.42688 18.6982 3.42688 18.1316V7.86841C3.42688 7.30151 3.81045 6.84204 4.28361 6.84204ZM18.8481 7.86841C18.8481 7.30151 18.4645 6.84204 17.9914 6.84204C17.5182 6.84204 17.1346 7.30151 17.1346 7.86841V18.1316C17.1346 18.6982 17.5182 19.158 17.9914 19.158C18.4645 19.158 18.8481 18.6982 18.8481 18.1316V7.86841ZM0.856728 10.9473C1.32989 10.9473 1.71346 11.4067 1.71346 11.9736V14.0261C1.71346 14.593 1.32989 15.0525 0.856728 15.0525C0.383568 15.0525 0 14.593 0 14.0261V11.9736C0 11.4067 0.383568 10.9473 0.856728 10.9473ZM22.275 11.9736C22.275 11.4067 21.8914 10.9473 21.4183 10.9473C20.9451 10.9473 20.5615 11.4067 20.5615 11.9736V14.0261C20.5615 14.593 20.9451 15.0525 21.4183 15.0525C21.8914 15.0525 22.275 14.593 22.275 14.0261V11.9736Z" fill="#000000" fill-opacity="0.9"/>
</svg>
