<svg width="200" height="35" viewBox="0 0 200 35" fill="none" xmlns="http://www.w3.org/2000/svg">
<path fill-rule="evenodd" clip-rule="evenodd" d="M2.89429 29.8064C4.74335 32.1111 7.72437 33.9385 11.2043 34.1438H11.6503H11.6552H11.6692C12.0235 34.1438 12.4327 34.146 12.9 34.1487H12.9075H12.9162C13.1887 34.1504 13.4783 34.1521 13.7827 34.1533C14.6874 34.1572 15.7225 34.158 16.8281 34.1438H48.3669H48.3738H48.3969C53.2155 34.1438 56.8588 32.3367 59.2122 29.4712C61.4825 26.7065 62.3906 23.167 62.3906 19.7896C62.3906 12.3247 55.0355 5.88818 47.0023 5.88818C45.7202 5.88818 44.4487 6.10156 43.2294 6.46704C40.1985 2.5813 35.35 0 29.8005 0C22.2445 0 16.0312 4.74902 13.8536 11.1201C13.092 10.9636 12.353 10.8706 11.6692 10.8706C4.78131 10.8706 0 16.2769 0 21.6013C0 24.5579 1.05035 27.5083 2.89429 29.8064ZM6.33594 26.9717C7.44806 28.3577 9.83594 29.9717 11.3359 30.0627L11.8353 30.0994L12.3359 30.135L12.9484 30.1746L12.9548 30.1748L14.1957 30.2549C15.0116 30.2861 15.8932 30.2888 16.811 30.2771H48.3969C51.4818 30.2771 55.0864 28.4932 56.3359 26.9717C57.6686 25.3489 58.8359 22.4158 58.8359 19.7896C58.8359 14.1304 51.9863 9.71899 47.0023 9.71899C44.6138 9.71899 43.1519 9.82739 41.8359 10.4717C39.907 6.99146 33.9226 3.47168 29.8005 3.47168C24.3052 3.47168 18.0602 8.88672 17.3359 14.4343L17.0085 16.5449C14.3359 15.4717 13.3359 15.4717 11.6503 15.4717C7.83594 14.9717 4.83594 18.7729 4.83594 21.6013C4.83594 21.8733 4.82849 22.1299 4.82135 22.377V22.3799C4.77893 23.854 4.74622 24.9902 6.33594 26.9717ZM22.9481 27.4712C22.2864 27.4712 21.7381 27.3508 21.3032 27.1104C20.8684 26.8782 20.5801 26.5562 20.4383 26.1438C20.2965 25.7312 20.3248 25.2629 20.5234 24.7388L20.9629 23.6045C21.1142 23.2092 21.1047 22.8828 20.9345 22.625C20.7644 22.3672 20.4667 22.2383 20.0413 22.2383H18.8359V20.7175H20.0413C20.4667 20.7175 20.7644 20.5886 20.9345 20.3308C21.1047 20.073 21.1142 19.7466 20.9629 19.3511L20.5234 18.217C20.3248 17.6929 20.2965 17.2246 20.4383 16.812C20.5801 16.3997 20.8684 16.0774 21.3032 15.8455C21.7381 15.605 22.2864 15.4846 22.9481 15.4846C23.2128 15.4846 23.468 15.5059 23.7137 15.5491C23.9596 15.5835 24.2101 15.6392 24.4653 15.7166L24.1534 17.1987C24.0116 17.1558 23.8651 17.1216 23.7137 17.0957C23.572 17.0698 23.4208 17.0569 23.26 17.0569C22.9197 17.0657 22.6834 17.1816 22.551 17.405C22.4187 17.6199 22.4141 17.8904 22.5369 18.217L22.9907 19.4028C23.1797 19.9011 23.1324 20.3438 22.8488 20.7302C22.5652 21.1169 22.1162 21.3662 21.5017 21.4778C22.1162 21.5896 22.5652 21.8389 22.8488 22.2256C23.1324 22.6121 23.1797 23.0547 22.9907 23.553L22.5369 24.7388C22.4141 25.0652 22.4187 25.3359 22.551 25.5508C22.6834 25.7742 22.9197 25.8901 23.26 25.8987C23.4208 25.8987 23.572 25.886 23.7137 25.8601C23.8651 25.8342 24.0116 25.8 24.1534 25.7571L24.4653 27.2393C24.2101 27.3167 23.9596 27.3723 23.7137 27.4067C23.468 27.4497 23.2128 27.4712 22.9481 27.4712ZM27.0538 27.3296L32.7541 15.6135H34.9377L29.2518 27.3296H27.0538ZM40.2338 15.4717C40.8955 15.4717 41.4438 15.592 41.8786 15.8325C42.3135 16.0647 42.6018 16.3867 42.7436 16.7991C42.8854 17.2117 42.8571 17.6799 42.6585 18.2041L42.2189 19.3384C42.0677 19.7336 42.0771 20.0601 42.2473 20.3179C42.4174 20.5757 42.7153 20.7046 43.1406 20.7046H44.3459V22.2256H43.1406C42.7153 22.2256 42.4174 22.3542 42.2473 22.6121C42.0771 22.8699 42.0677 23.1963 42.2189 23.5918L42.6585 24.7258C42.8571 25.25 42.8854 25.7183 42.7436 26.1309C42.6018 26.5432 42.3135 26.8655 41.8786 27.0974C41.4438 27.3379 40.8955 27.4583 40.2338 27.4583C39.9691 27.4583 39.7139 27.4368 39.4681 27.3938C39.3199 27.3733 39.17 27.3447 39.0184 27.3083C38.9186 27.2844 38.8179 27.2571 38.7166 27.2263L39.0285 25.7441C39.1703 25.7871 39.3121 25.8215 39.4539 25.8472C39.6052 25.873 39.7611 25.886 39.9218 25.886C40.2621 25.8772 40.4985 25.7612 40.6308 25.5378C40.7632 25.323 40.7679 25.0525 40.645 24.7258L40.1913 23.54C40.0023 23.0417 40.0494 22.5991 40.3331 22.2126C40.6166 21.8259 41.0657 21.5767 41.6801 21.4651C41.0657 21.3533 40.6166 21.104 40.3331 20.7175C40.0494 20.3308 40.0023 19.8882 40.1913 19.3899L40.645 18.2041C40.7679 17.8777 40.7632 17.6069 40.6308 17.3921C40.4985 17.1687 40.2621 17.0527 39.9218 17.0442C39.7611 17.0442 39.6052 17.0569 39.4539 17.0828C39.3121 17.1086 39.1703 17.1428 39.0285 17.1858L38.7166 15.7036C38.8427 15.6653 38.9677 15.6323 39.0914 15.6047C39.2182 15.5764 39.3438 15.5535 39.4681 15.5361C39.7139 15.4932 39.9691 15.4717 40.2338 15.4717ZM75.4294 28.4158C76.5515 28.8477 77.756 29.0637 79.0429 29.0637C79.9669 29.0637 80.8662 28.9436 81.7407 28.7036C82.6317 28.4478 83.4567 28.0876 84.2157 27.6238C84.9747 27.1597 85.6264 26.6077 86.1709 25.9678L83.8197 23.7117C83.2092 24.3997 82.5079 24.9277 81.7159 25.2957C80.924 25.6636 80.0742 25.8477 79.1667 25.8477C78.3582 25.8477 77.6074 25.7117 76.9144 25.4397C76.2379 25.1677 75.644 24.7917 75.1324 24.3118C74.6209 23.8157 74.2249 23.2397 73.9444 22.5837C73.6639 21.9116 73.5237 21.1917 73.5237 20.4236C73.5237 19.6396 73.6639 18.9197 73.9444 18.2637C74.2249 17.5918 74.6127 17.0156 75.1077 16.5356C75.6027 16.0398 76.1884 15.6558 76.8649 15.3838C77.5414 15.0957 78.2674 14.9517 79.0429 14.9517C79.9834 14.9517 80.8579 15.1438 81.6664 15.5276C82.4914 15.9116 83.2174 16.4797 83.8444 17.2317L86.2699 14.9036C85.7254 14.2476 85.0654 13.6877 84.2899 13.2236C83.5309 12.7598 82.7059 12.3997 81.8149 12.1438C80.924 11.8877 79.9999 11.7598 79.0429 11.7598C77.756 11.7598 76.5515 11.9836 75.4294 12.4316C74.3239 12.8638 73.3504 13.4717 72.5089 14.2556C71.6674 15.0398 71.0074 15.9597 70.5289 17.0156C70.0669 18.0557 69.8359 19.1917 69.8359 20.4236C69.8359 21.6396 70.0669 22.7756 70.5289 23.8318C71.0074 24.8716 71.6592 25.7837 72.4842 26.5676C73.3257 27.3516 74.3074 27.9678 75.4294 28.4158ZM90.4805 28.1997C91.52 28.7756 92.6833 29.0637 93.9703 29.0637C95.2738 29.0637 96.4453 28.7756 97.4848 28.1997C98.5243 27.6238 99.341 26.8477 99.935 25.8716C100.546 24.8958 100.851 23.7996 100.851 22.5837C100.851 21.3677 100.546 20.2717 99.935 19.2957C99.341 18.3037 98.516 17.5198 97.46 16.9436C96.4205 16.3677 95.2573 16.0796 93.9703 16.0796C92.6833 16.0796 91.5118 16.3677 90.4558 16.9436C89.4163 17.5198 88.5913 18.3037 87.9808 19.2957C87.3868 20.2717 87.0898 21.3677 87.0898 22.5837C87.0898 23.7996 87.395 24.8958 88.0055 25.8716C88.616 26.8477 89.441 27.6238 90.4805 28.1997ZM95.777 25.7278C95.249 26.0476 94.6468 26.2078 93.9703 26.2078C93.3103 26.2078 92.708 26.0476 92.1635 25.7278C91.619 25.4077 91.19 24.9756 90.8765 24.4316C90.563 23.8716 90.4063 23.2556 90.4063 22.5837C90.4063 21.8958 90.563 21.2798 90.8765 20.7356C91.19 20.1917 91.619 19.7598 92.1635 19.4397C92.708 19.1038 93.3103 18.9358 93.9703 18.9358C94.6468 18.9358 95.249 19.1038 95.777 19.4397C96.3215 19.7598 96.7505 20.1917 97.064 20.7356C97.394 21.2798 97.559 21.8958 97.559 22.5837C97.559 23.2556 97.394 23.8716 97.064 24.4316C96.7505 24.9756 96.3215 25.4077 95.777 25.7278ZM105.583 28.1277C106.573 28.7036 107.679 28.9917 108.9 28.9917C110.286 28.9917 111.507 28.5918 112.563 27.7917V28.8237H115.904V11.4717L112.513 12.0237V17.1357C112.002 16.8157 111.449 16.5757 110.855 16.4158C110.261 16.2397 109.642 16.1516 108.999 16.1516C107.745 16.1516 106.615 16.4397 105.608 17.0156C104.602 17.5757 103.801 18.3438 103.207 19.3196C102.63 20.2798 102.341 21.3596 102.341 22.5596C102.341 23.7598 102.63 24.8477 103.207 25.8237C103.801 26.7837 104.593 27.5518 105.583 28.1277ZM111.152 25.8958C110.64 26.0876 110.071 26.1836 109.444 26.1836C108.735 26.1836 108.091 26.0237 107.514 25.7036C106.953 25.3838 106.507 24.9517 106.177 24.4077C105.847 23.8638 105.682 23.2476 105.682 22.5596C105.682 21.8716 105.847 21.2556 106.177 20.7117C106.507 20.1516 106.953 19.7197 107.514 19.4158C108.091 19.0957 108.735 18.9358 109.444 18.9358C110.055 18.9358 110.624 19.0398 111.152 19.2476C111.68 19.4556 112.134 19.7437 112.513 20.1116V24.9836C112.134 25.3838 111.68 25.6877 111.152 25.8958ZM121.346 28.1997C122.402 28.7756 123.573 29.0637 124.86 29.0637C125.9 29.0637 126.832 28.9197 127.657 28.6316C128.499 28.3438 129.315 27.8877 130.107 27.2637L127.88 25.2957C127.533 25.6157 127.113 25.8638 126.618 26.0398C126.139 26.2156 125.611 26.3037 125.034 26.3037C124.456 26.3037 123.912 26.1917 123.4 25.9678C122.905 25.7437 122.484 25.4316 122.138 25.0317C121.808 24.6316 121.569 24.1836 121.42 23.6877H130.974V22.8237C130.974 21.5437 130.693 20.3997 130.132 19.3916C129.588 18.3838 128.837 17.5837 127.88 16.9917C126.923 16.3997 125.826 16.1038 124.588 16.1038C123.351 16.1038 122.229 16.3916 121.222 16.9678C120.216 17.5437 119.415 18.3196 118.821 19.2957C118.244 20.2717 117.955 21.3677 117.955 22.5837C117.955 23.7996 118.26 24.8958 118.871 25.8716C119.481 26.8477 120.306 27.6238 121.346 28.1997ZM127.632 21.3357H121.371C121.503 20.8237 121.709 20.3838 121.989 20.0156C122.286 19.6316 122.649 19.3357 123.078 19.1277C123.507 18.9197 123.986 18.8157 124.514 18.8157C125.025 18.8157 125.487 18.9277 125.9 19.1516C126.329 19.3596 126.692 19.6558 126.989 20.0398C127.302 20.4077 127.517 20.8396 127.632 21.3357ZM138.199 28.4158C139.321 28.8477 140.525 29.0637 141.812 29.0637C142.736 29.0637 143.635 28.9436 144.51 28.7036C145.401 28.4478 146.226 28.0876 146.985 27.6238C147.744 27.1597 148.396 26.6077 148.94 25.9678L146.589 23.7117C145.978 24.3997 145.277 24.9277 144.485 25.2957C143.693 25.6636 142.843 25.8477 141.936 25.8477C141.127 25.8477 140.377 25.7117 139.684 25.4397C139.007 25.1677 138.413 24.7917 137.902 24.3118C137.39 23.8157 136.994 23.2397 136.714 22.5837C136.433 21.9116 136.293 21.1917 136.293 20.4236C136.293 19.6396 136.433 18.9197 136.714 18.2637C136.994 17.5918 137.382 17.0156 137.877 16.5356C138.372 16.0398 138.958 15.6558 139.634 15.3838C140.311 15.0957 141.037 14.9517 141.812 14.9517C142.753 14.9517 143.627 15.1438 144.436 15.5276C145.261 15.9116 145.987 16.4797 146.614 17.2317L149.039 14.9036C148.495 14.2476 147.835 13.6877 147.059 13.2236C146.3 12.7598 145.475 12.3997 144.584 12.1438C143.693 11.8877 142.769 11.7598 141.812 11.7598C140.525 11.7598 139.321 11.9836 138.199 12.4316C137.093 12.8638 136.12 13.4717 135.278 14.2556C134.437 15.0398 133.777 15.9597 133.298 17.0156C132.836 18.0557 132.605 19.1917 132.605 20.4236C132.605 21.6396 132.836 22.7756 133.298 23.8318C133.777 24.8716 134.428 25.7837 135.253 26.5676C136.095 27.3516 137.077 27.9678 138.199 28.4158ZM150.816 12.0237V28.8237H154.207V11.4717L150.816 12.0237ZM159.655 28.1997C160.694 28.7756 161.857 29.0637 163.144 29.0637C164.448 29.0637 165.619 28.7756 166.659 28.1997C167.698 27.6238 168.515 26.8477 169.109 25.8716C169.72 24.8958 170.025 23.7996 170.025 22.5837C170.025 21.3677 169.72 20.2717 169.109 19.2957C168.515 18.3037 167.69 17.5198 166.634 16.9436C165.595 16.3677 164.431 16.0796 163.144 16.0796C161.857 16.0796 160.686 16.3677 159.63 16.9436C158.59 17.5198 157.765 18.3037 157.155 19.2957C156.561 20.2717 156.264 21.3677 156.264 22.5837C156.264 23.7996 156.569 24.8958 157.18 25.8716C157.79 26.8477 158.615 27.6238 159.655 28.1997ZM164.951 25.7278C164.423 26.0476 163.821 26.2078 163.144 26.2078C162.484 26.2078 161.882 26.0476 161.338 25.7278C160.793 25.4077 160.364 24.9756 160.051 24.4316C159.737 23.8716 159.58 23.2556 159.58 22.5837C159.58 21.8958 159.737 21.2798 160.051 20.7356C160.364 20.1917 160.793 19.7598 161.338 19.4397C161.882 19.1038 162.484 18.9358 163.144 18.9358C163.821 18.9358 164.423 19.1038 164.951 19.4397C165.496 19.7598 165.925 20.1917 166.238 20.7356C166.568 21.2798 166.733 21.8958 166.733 22.5837C166.733 23.2556 166.568 23.8716 166.238 24.4316C165.925 24.9756 165.496 25.4077 164.951 25.7278ZM174.46 28.4397C175.236 28.8557 176.119 29.0637 177.109 29.0637C178.544 29.0637 179.757 28.6477 180.747 27.8157V28.8237H184.138V16.3196H180.747V24.9836C180.45 25.3838 180.07 25.6958 179.608 25.9197C179.163 26.1277 178.66 26.2317 178.099 26.2317C177.274 26.2317 176.614 25.9917 176.119 25.5117C175.64 25.0317 175.401 24.3916 175.401 23.5918V16.3196H172.01V24.0718C172.01 25.0476 172.225 25.9116 172.654 26.6636C173.099 27.4158 173.701 28.0076 174.46 28.4397ZM189.429 28.1277C190.419 28.7036 191.524 28.9917 192.745 28.9917C194.131 28.9917 195.352 28.5918 196.408 27.7917V28.8237H199.75V11.4717L196.359 12.0237V17.1357C195.847 16.8157 195.295 16.5757 194.701 16.4158C194.107 16.2397 193.488 16.1516 192.844 16.1516C191.59 16.1516 190.46 16.4397 189.454 17.0156C188.447 17.5757 187.647 18.3438 187.053 19.3196C186.475 20.2798 186.187 21.3596 186.187 22.5596C186.187 23.7598 186.475 24.8477 187.053 25.8237C187.647 26.7837 188.439 27.5518 189.429 28.1277ZM194.998 25.8958C194.486 26.0876 193.917 26.1836 193.29 26.1836C192.58 26.1836 191.937 26.0237 191.359 25.7036C190.798 25.3838 190.353 24.9517 190.023 24.4077C189.693 23.8638 189.528 23.2476 189.528 22.5596C189.528 21.8716 189.693 21.2556 190.023 20.7117C190.353 20.1516 190.798 19.7197 191.359 19.4158C191.937 19.0957 192.58 18.9358 193.29 18.9358C193.9 18.9358 194.47 19.0398 194.998 19.2476C195.526 19.4556 195.979 19.7437 196.359 20.1116V24.9836C195.979 25.3838 195.526 25.6877 194.998 25.8958Z" fill="#000000" fill-opacity="0.9"/>
</svg>
