<svg width="153" height="41" viewBox="0 0 153 41" fill="none" xmlns="http://www.w3.org/2000/svg">
<path fill-rule="evenodd" clip-rule="evenodd" d="M33.081 16.1482L31.6149 17.4521C29.9667 18.9182 27.4418 18.7693 25.9775 17.1194C23.4042 14.2197 18.9225 14.0798 16.1732 16.8132L15.8912 17.0935C14.2435 18.7317 11.5699 18.6912 9.9726 17.0039L9.80292 16.8247C7.19366 14.0684 2.84692 13.9402 0.0800171 16.5386L0.000183105 16.6135L0 16.541C0 7.40576 7.40643 0 16.5427 0C25.5477 0 32.8721 7.19409 33.081 16.1482ZM32.7047 20.0862C29.9461 21.9294 26.1804 21.5012 23.9155 18.9495C22.3936 17.2344 19.7429 17.1516 18.1169 18.7683L17.835 19.0486C15.0888 21.7788 10.6328 21.7112 7.97052 18.8992L7.8009 18.72C6.23529 17.0662 3.62726 16.9893 1.9671 18.5481L0.37207 20.0459C0.648926 21.3289 1.07465 22.5569 1.63025 23.7102C4.2901 22.3325 7.64221 22.8127 9.80292 25.0952L9.9726 25.2744C11.5699 26.9617 14.2435 27.0022 15.8912 25.364L16.1732 25.0837C18.9225 22.3503 23.4042 22.4905 25.9775 25.3899C26.9222 26.4543 28.3083 26.894 29.6157 26.6785C31.0977 24.7705 32.1712 22.5293 32.7047 20.0862ZM16.5427 33.0823C10.9644 33.0823 6.03088 30.3213 3.03436 26.0916C4.60699 25.3501 6.54132 25.6599 7.8009 26.9905L7.97052 27.1697C10.6328 29.9819 15.0888 30.0496 17.835 27.3191L18.1169 27.0388C19.7429 25.4221 22.3936 25.5049 23.9155 27.22C24.8093 28.2271 25.9369 28.9033 27.1439 29.2397C24.2732 31.6387 20.5765 33.0823 16.5427 33.0823ZM43.2274 27.9038C44.2155 28.5037 45.3182 28.8037 46.5356 28.8037C49.0764 28.8037 50.9995 27.4363 52.3052 24.7014C52.4993 26.0071 52.9756 27.0217 53.7343 27.7451C54.493 28.4507 55.4899 28.8037 56.725 28.8037C57.2925 28.8037 57.8185 28.7424 58.3031 28.6201C57.9751 29.3745 57.6885 30.1062 57.4431 30.8152C56.6491 33.1265 56.2521 35.1467 56.2521 36.8757C56.2521 38.0933 56.4815 39.0459 56.9402 39.7341C57.399 40.4221 58.1047 40.7661 59.0575 40.7661C60.6278 40.7661 61.8187 39.6194 62.6304 37.3257C63.442 35.0496 63.9625 32.209 64.1918 28.8037C65.2858 28.7861 66.3356 28.4507 67.3412 27.7981C67.9235 28.4685 68.6822 28.8037 69.6173 28.8037C70.1182 28.8037 70.5939 28.7429 71.0446 28.6211C70.7168 29.3752 70.4302 30.1064 70.1849 30.8152C69.3909 33.1265 68.994 35.1467 68.994 36.8757C68.994 38.0933 69.2233 39.0459 69.6821 39.7341C70.1408 40.4221 70.8466 40.7661 71.7993 40.7661C73.3696 40.7661 74.5605 39.6194 75.3722 37.3257C76.1838 35.0496 76.7043 32.209 76.9337 28.8037C78.0276 28.7861 79.0774 28.4507 80.0831 27.7981C80.6653 28.4685 81.424 28.8037 82.3591 28.8037C83.4707 28.8037 84.4587 28.5037 85.3233 27.9038C86.2055 27.304 87.0259 26.5364 87.7846 25.6013C88.1199 25.2131 88.2875 24.6663 88.2875 23.9604C88.2875 23.7708 88.269 23.6021 88.232 23.4541C88.1967 23.3127 88.1447 23.1904 88.0757 23.0872C87.9523 22.8752 87.7758 22.7695 87.5464 22.7695C87.2818 22.7695 87.0436 22.8931 86.8318 23.1399C86.0026 24.1282 85.3233 24.8337 84.794 25.2573C84.2646 25.6807 83.7089 25.8923 83.1266 25.8923C82.8796 25.8923 82.5709 25.8396 82.2004 25.7336C82.7297 25.0103 83.1443 24.2075 83.4442 23.3252C83.7442 22.4431 83.8942 21.5344 83.8942 20.5994C83.8942 19.3113 83.5765 18.2703 82.9414 17.4763C82.3239 16.6824 81.5211 16.2854 80.533 16.2854C79.9155 16.2854 79.3333 16.4441 78.7863 16.7617C78.2393 17.0618 77.6835 17.5645 77.1189 18.2703C77.1099 18.1616 77.1031 18.0229 77.0988 17.8538C77.0945 17.6934 77.0925 17.5059 77.0925 17.291C77.0748 16.8501 76.9778 16.5588 76.8013 16.4177C76.6425 16.2588 76.3779 16.1794 76.0074 16.1794C75.3722 16.1794 74.8429 16.3296 74.4194 16.6294C73.996 16.9294 73.793 17.3352 73.8107 17.8469C73.846 18.8525 73.8636 20.6433 73.8636 23.2195C73.7465 23.415 73.6316 23.6096 73.5188 23.8027C72.9433 24.4507 72.4544 24.9353 72.0522 25.2573C71.5228 25.6807 70.9671 25.8923 70.3848 25.8923C70.1378 25.8923 69.829 25.8396 69.4585 25.7336C69.9879 25.0103 70.4025 24.2075 70.7024 23.3252C71.0024 22.4431 71.1523 21.5344 71.1523 20.5994C71.1523 19.3113 70.8347 18.2703 70.1996 17.4763C69.582 16.6824 68.7792 16.2854 67.7912 16.2854C67.1736 16.2854 66.5914 16.4441 66.0444 16.7617C65.4975 17.0618 64.9417 17.5645 64.3771 18.2703C64.3696 18.1807 64.3637 18.0706 64.3594 17.9397C64.3536 17.7617 64.3506 17.5454 64.3506 17.291C64.333 16.8501 64.236 16.5588 64.0595 16.4177C63.9007 16.2588 63.636 16.1794 63.2656 16.1794C62.6304 16.1794 62.101 16.3296 61.6776 16.6294C61.2542 16.9294 61.0512 17.3352 61.0688 17.8469C61.1042 18.8525 61.1218 20.6433 61.1218 23.2195C61.0047 23.415 60.8897 23.6094 60.7769 23.8027C60.2537 24.3794 59.8029 24.8113 59.4245 25.0984C58.9128 25.469 58.3746 25.6543 57.8101 25.6543C57.2278 25.6543 56.7955 25.4426 56.5132 25.019C56.231 24.5779 56.0898 23.8811 56.0898 22.9282C56.0898 21.8521 56.275 20.2817 56.6456 18.2173C57.0338 16.1355 57.4572 14.2388 57.9159 12.5273C57.9689 12.3154 57.9953 12.1392 57.9953 11.9978C57.9953 11.1863 57.369 10.7805 56.1163 10.7805C55.5869 10.7805 55.1635 10.8687 54.8459 11.0452C54.5283 11.2217 54.3166 11.5569 54.2107 12.0508C53.5579 15.4385 52.8962 18.1204 52.2258 20.0964C51.5553 22.0725 50.8143 23.5017 50.0027 24.3838C49.191 25.2661 48.2471 25.7073 47.1708 25.7073C46.2181 25.7073 45.4417 25.3013 44.8419 24.4897C44.2596 23.6604 43.9684 22.4961 43.9684 20.9963C43.9684 18.9319 44.3566 17.0088 45.1329 15.2268C45.9093 13.4448 47.0826 12.0156 48.6529 10.9392C50.2232 9.84546 52.1287 9.29834 54.3695 9.29834C55.0929 9.29834 55.781 9.35132 56.4338 9.45728C57.0867 9.54541 57.8718 9.69531 58.7893 9.90723C58.8599 9.9248 58.9658 9.93359 59.1069 9.93359C59.5656 9.93359 59.9626 9.73071 60.2979 9.32495C60.6507 8.91919 60.8271 8.48682 60.8271 8.02808C60.8271 7.46338 60.5801 7.1106 60.0861 6.96948C59.3275 6.72241 58.4805 6.53711 57.5454 6.41357C56.6279 6.29004 55.7634 6.22827 54.9518 6.22827C51.8112 6.22827 49.1205 6.92529 46.8797 8.31909C44.6389 9.69531 42.9451 11.5303 41.7983 13.824C40.6514 16.1001 40.078 18.5791 40.078 21.261C40.078 22.8135 40.3603 24.1633 40.9249 25.3103C41.4895 26.4395 42.257 27.304 43.2274 27.9038ZM66.0709 25.2307C65.5416 25.7778 64.9594 26.1218 64.3242 26.2629C64.3418 25.8218 64.3506 25.1956 64.3506 24.3838C64.3506 22.8843 64.3594 21.7461 64.3771 20.9697C65.2769 19.6289 66.0444 18.9585 66.6796 18.9585C67.0325 18.9585 67.3148 19.0996 67.5266 19.3818C67.7382 19.6465 67.8441 20.0435 67.8441 20.5728C67.8441 21.4727 67.6853 22.3372 67.3677 23.1665C67.0501 23.978 66.6179 24.6663 66.0709 25.2307ZM60.4601 35.0496C60.1426 37.1316 59.7456 38.1726 59.2692 38.1726C59.0928 38.1726 58.9428 38.0227 58.8193 37.7227C58.6782 37.4226 58.6075 36.9905 58.6075 36.4258C58.6075 35.3318 58.8281 33.9822 59.2692 32.3765C59.7103 30.771 60.3102 29.0859 61.0688 27.3215C60.9807 30.4092 60.7778 32.9854 60.4601 35.0496ZM78.8127 25.2307C78.2834 25.7778 77.7012 26.1218 77.066 26.2629C77.0732 26.082 77.079 25.8699 77.0833 25.6265C77.0894 25.2766 77.0925 24.8625 77.0925 24.3838C77.0925 22.8843 77.1013 21.7461 77.1189 20.9697C78.0187 19.6289 78.7863 18.9585 79.4214 18.9585C79.7743 18.9585 80.0566 19.0996 80.2684 19.3818C80.4801 19.6465 80.5859 20.0435 80.5859 20.5728C80.5859 21.4727 80.4271 22.3372 80.1096 23.1665C79.792 23.978 79.3597 24.6663 78.8127 25.2307ZM73.202 35.0496C72.8844 37.1316 72.4874 38.1726 72.011 38.1726C71.8346 38.1726 71.6846 38.0227 71.5611 37.7227C71.42 37.4226 71.3494 36.9905 71.3494 36.4258C71.3494 35.3318 71.5699 33.9822 72.011 32.3765C72.4521 30.771 73.052 29.0859 73.8107 27.3215C73.7225 30.4092 73.5196 32.9854 73.202 35.0496ZM120.556 17.4307C120.376 17.3022 120.114 17.238 119.768 17.238C118.55 17.238 117.491 17.1587 116.592 17C117.456 14.5652 117.888 12.3508 117.888 10.3569C117.888 8.94556 117.553 7.83398 116.883 7.02246C116.23 6.21069 115.339 5.80493 114.21 5.80493C113.292 5.80493 112.454 6.04321 111.695 6.51953C110.954 6.99585 110.363 7.71924 109.922 8.6897C109.498 9.64258 109.287 10.8157 109.287 12.2097C109.287 13.6035 109.56 14.8386 110.107 15.9148C110.654 16.9734 111.466 17.8381 112.542 18.5085C111.678 20.4141 110.725 22.0107 109.684 23.2988C108.643 24.5691 107.699 25.2043 106.852 25.2043C106.128 25.2043 105.573 24.9043 105.184 24.3044C104.814 23.687 104.558 22.7959 104.417 21.6313C104.293 20.467 104.232 18.9055 104.232 16.947C104.232 14.071 104.479 11.1951 104.973 8.31909C105.008 8.1604 105.026 7.93994 105.026 7.65747C105.026 7.18115 104.893 6.82837 104.629 6.59888C104.382 6.35181 103.985 6.22827 103.438 6.22827C102.785 6.22827 102.264 6.38721 101.876 6.70483C101.506 7.00464 101.25 7.56055 101.109 8.37207C100.509 11.9009 99.7766 14.9443 98.912 17.5027C98.0475 20.0435 97.1741 21.9668 96.2919 23.2722C95.4274 24.5603 94.6863 25.2043 94.0688 25.2043C93.3807 25.2043 92.8337 24.5603 92.4279 23.2722C92.0221 21.9844 91.8192 20.1582 91.8192 17.7939C91.8192 15.2532 92.0839 12.1743 92.6132 8.55737C92.6485 8.20459 92.6661 7.96631 92.6661 7.84277C92.6661 7.22534 92.5162 6.80176 92.2162 6.57251C91.9339 6.34302 91.5281 6.22827 90.9988 6.22827C90.293 6.22827 89.7725 6.40479 89.4373 6.75781C89.1197 7.09302 88.8992 7.70166 88.7756 8.58374C88.3169 11.6892 88.0875 14.5386 88.0875 17.1323C88.0875 20.6963 88.5198 23.5371 89.3844 25.6543C90.2489 27.7539 91.5281 28.8037 93.2219 28.8037C94.7216 28.8037 96.1331 28.0537 97.4564 26.5542C98.7974 25.0544 99.9971 22.7695 101.056 19.6995C101.162 22.4695 101.603 24.6838 102.379 26.3423C103.155 27.9832 104.32 28.8037 105.873 28.8037C107.566 28.8037 109.278 27.9392 111.007 26.21C112.754 24.4634 114.245 22.2754 115.48 19.6465C116.318 19.8193 117.236 19.9221 118.233 19.9546C118.129 20.1287 118.03 20.3083 117.935 20.4934C117.282 21.7461 116.956 23.0784 116.956 24.4897C116.956 25.7778 117.282 26.8188 117.935 27.6128C118.588 28.4067 119.461 28.8037 120.555 28.8037C121.949 28.8037 123.104 28.0627 124.022 26.5806C124.269 27.2686 124.631 27.8157 125.107 28.2214C125.601 28.6096 126.139 28.8037 126.721 28.8037C127.48 28.8037 128.265 28.4949 129.077 27.8774C129.585 27.4905 130.077 27.0481 130.551 26.5503C130.687 27.1418 130.879 27.6106 131.128 27.9568C131.551 28.5215 132.125 28.8037 132.848 28.8037C133.501 28.8037 134.083 28.6184 134.595 28.2478C135.107 27.8774 135.715 27.1892 136.421 26.1836C137.039 25.3013 137.603 24.4456 138.115 23.6165C138.803 23.8281 139.535 23.9341 140.312 23.9341C140.721 23.9341 141.12 23.9077 141.508 23.855C141.618 25.2646 142.077 26.4114 142.884 27.2952C143.819 28.3008 145.134 28.8037 146.828 28.8037C147.939 28.8037 148.892 28.592 149.686 28.1685C150.498 27.7451 151.15 27.1541 151.644 26.3953C151.944 25.9365 152.094 25.3896 152.094 24.7544C152.094 24.3838 152.024 24.0928 151.883 23.8811C151.759 23.6694 151.583 23.5635 151.353 23.5635C151.089 23.5635 150.85 23.6958 150.639 23.9604C150.021 24.7544 149.474 25.3191 148.998 25.6543C148.539 25.9895 147.948 26.157 147.225 26.157C146.219 26.157 145.504 25.7512 145.081 24.9397C147.181 24.428 148.663 23.74 149.527 22.8752C150.409 21.9932 150.85 20.9434 150.85 19.7258C150.85 18.6851 150.542 17.8645 149.924 17.2646C149.307 16.647 148.486 16.3384 147.463 16.3384C146.316 16.3384 145.284 16.647 144.366 17.2646C143.466 17.8821 142.761 18.7202 142.249 19.7788C142.075 20.1321 141.931 20.4954 141.817 20.8689C140.961 21.0305 140.257 21.126 139.703 21.155C140.126 20.1318 140.338 19.2231 140.338 18.4292C140.338 17.741 140.179 17.2205 139.862 16.8677C139.544 16.4971 139.129 16.3118 138.618 16.3118C138.035 16.3118 137.515 16.4883 137.056 16.8411C136.598 17.1941 136.236 17.6528 135.971 18.2173C135.707 18.782 135.574 19.3643 135.574 19.9641C135.574 20.6699 135.707 21.2786 135.971 21.7903C135.442 22.7253 134.648 23.978 133.589 25.5483C133.342 22.302 133.219 19.6641 133.219 17.635C133.219 17.1587 133.104 16.8235 132.875 16.6294C132.663 16.4177 132.328 16.3118 131.869 16.3118C131.269 16.3118 130.819 16.4265 130.519 16.656C130.219 16.8853 130.06 17.291 130.043 17.8733V18.7996C130.043 20.1631 130.1 21.6938 130.215 23.3916C129.502 24.2334 128.929 24.8552 128.495 25.2573C128.018 25.6807 127.612 25.8923 127.277 25.8923C127.065 25.8923 126.889 25.813 126.748 25.6543C126.624 25.4954 126.563 25.2837 126.563 25.019C126.563 24.2251 126.765 22.8135 127.171 20.7847C127.436 19.3906 127.568 18.5085 127.568 18.1379C127.568 17.5205 127.136 17.2117 126.271 17.2117C125.866 17.2117 125.477 17.2471 125.107 17.3176C125.019 16.9294 124.904 16.6648 124.763 16.5237C124.639 16.3647 124.384 16.2854 123.995 16.2854C122.788 16.2854 121.642 16.6672 120.556 17.4307ZM113.627 15.8618C112.516 15.0327 111.96 13.7534 111.96 12.0244C111.96 11.001 112.11 10.2158 112.41 9.66895C112.71 9.10425 113.098 8.82202 113.575 8.82202C113.91 8.82202 114.174 8.99854 114.368 9.35132C114.563 9.68652 114.66 10.2246 114.66 10.9658C114.66 12.2537 114.316 13.8857 113.627 15.8618ZM122.619 25.4426C122.266 25.9014 121.896 26.1306 121.508 26.1306C121.119 26.1306 120.811 25.9983 120.581 25.7336C120.37 25.469 120.264 25.0632 120.264 24.5161C120.264 23.5281 120.449 22.593 120.82 21.7109C121.19 20.8286 121.684 20.1228 122.302 19.5935C122.937 19.0466 123.625 18.7644 124.366 18.7466L123.387 23.6165C123.228 24.375 122.972 24.9839 122.619 25.4426ZM145.346 20.0701C145.804 19.3113 146.36 18.9319 147.013 18.9319C147.33 18.9319 147.578 19.0378 147.754 19.2495C147.948 19.4436 148.045 19.7083 148.045 20.0435C148.045 20.6963 147.745 21.2698 147.145 21.7637C146.545 22.2578 145.725 22.6284 144.684 22.8752V22.8225C144.684 21.7461 144.904 20.8286 145.346 20.0701Z" fill="#000000" fill-opacity="0.9"/>
</svg>
