<svg width="220" height="32" viewBox="0 0 220 32" fill="none" xmlns="http://www.w3.org/2000/svg">
<path fill-rule="evenodd" clip-rule="evenodd" d="M16.4465 0L17.4292 9.96387L21.5288 0.783203L19.2984 10.5547L26.1136 3.05566L20.8886 11.6785L29.752 6.59546L22.0438 13.2256L32.0881 11.0557L22.6512 15.0439L32.893 16L22.6512 16.9561L32.0881 20.9443L22.0438 18.7744L29.752 25.4045L20.8886 20.3215L26.1136 28.9443L19.2984 21.4453L21.5288 31.2168L17.4292 22.0361L16.4465 32L15.4638 22.0361L11.3642 31.2168L13.5946 21.4453L6.7795 28.9443L12.0044 20.3215L3.14101 25.4045L10.8493 18.7744L0.804947 20.9443L10.2419 16.9561L0 16L10.2419 15.0439L0.804947 11.0557L10.8493 13.2256L3.14101 6.59546L12.0044 11.6785L6.7795 3.05566L13.5946 10.5547L11.3642 0.783203L15.4638 9.96387L16.4465 0ZM16.4465 10L17.4562 12.6545C17.8726 13.7495 18.7599 14.6125 19.8854 15.0176L22.614 16L19.8854 16.9824C18.7599 17.3875 17.8726 18.2505 17.4562 19.3455L16.4465 22L15.4368 19.3455C15.0204 18.2505 14.1331 17.3875 13.0076 16.9824L10.2791 16L13.0076 15.0176C14.1331 14.6125 15.0204 13.7495 15.4369 12.6545L16.4465 10ZM42.9665 23.6919C43.5257 23.804 44.0355 23.8599 44.496 23.8599C45.5651 23.8599 46.5107 23.668 47.3331 23.2839C48.1718 22.8999 48.8215 22.356 49.282 21.6519C49.7589 20.9319 49.9974 20.0759 49.9974 19.084C49.9974 18.1719 49.8083 17.4199 49.43 16.8279C49.0517 16.2358 48.5583 15.74 47.9498 15.3398C47.3577 14.9399 46.7163 14.5879 46.0256 14.2839C45.3513 13.98 44.7098 13.676 44.1013 13.3718C43.5092 13.0679 43.0241 12.708 42.6458 12.292C42.2675 11.876 42.0784 11.3479 42.0784 10.708C42.0784 10.2759 42.1853 9.86792 42.3991 9.48389C42.6294 9.08398 42.9912 8.76392 43.4846 8.52393C43.9944 8.26782 44.6523 8.13989 45.4582 8.13989C46.6094 8.13989 47.4482 8.41187 47.9745 8.95581C48.5008 9.5 48.8132 10.2839 48.9119 11.3079H49.4793V7.82788C49.1011 7.68384 48.5994 7.54004 47.9745 7.396C47.366 7.25195 46.5847 7.17993 45.6309 7.17993C44.5454 7.17993 43.5997 7.36401 42.7938 7.73193C41.9879 8.09985 41.363 8.61182 40.9189 9.26782C40.4749 9.90796 40.2528 10.6599 40.2528 11.5239C40.2528 12.356 40.442 13.0439 40.8203 13.5879C41.1985 14.1318 41.6837 14.5879 42.2758 14.9558C42.8843 15.324 43.5175 15.6599 44.1753 15.9639C44.8496 16.252 45.4828 16.564 46.0749 16.8999C46.6834 17.22 47.1768 17.6199 47.5551 18.0999C47.9334 18.564 48.1225 19.1638 48.1225 19.8999C48.1225 20.4119 48.0074 20.8999 47.7771 21.364C47.5633 21.812 47.2097 22.1799 46.7163 22.468C46.2394 22.7559 45.598 22.8999 44.7921 22.8999C43.6244 22.8999 42.6623 22.5479 41.9057 21.844C41.1492 21.1399 40.738 20.1799 40.6722 18.9639H40.1048C39.9733 19.188 39.8663 19.4758 39.7841 19.8279C39.7019 20.1799 39.6608 20.5159 39.6608 20.8359C39.6608 21.4119 39.817 21.8999 40.1295 22.3C40.4584 22.6838 40.8696 22.988 41.363 23.2119C41.8728 23.436 42.4073 23.5959 42.9665 23.6919ZM55.2972 23.2839C56.0702 23.668 56.876 23.8599 57.7148 23.8599C58.7181 23.8599 59.5979 23.6199 60.3545 23.1399C61.1275 22.6599 61.7442 22.0359 62.2047 21.2678L61.81 20.884C61.3659 21.2839 60.8643 21.6199 60.3051 21.8918C59.746 22.1479 59.1374 22.2759 58.4796 22.2759C57.3283 22.2759 56.4073 21.8599 55.7166 21.0278C55.0258 20.196 54.6804 19.0439 54.6804 17.572V17.3079L62.0814 16.3718C62.0814 15.5078 61.8922 14.7959 61.514 14.2358C61.1521 13.676 60.667 13.26 60.0584 12.988C59.4664 12.7158 58.8167 12.5798 58.1095 12.5798C57.1392 12.5798 56.2429 12.8279 55.4205 13.324C54.5982 13.8198 53.9403 14.5159 53.447 15.4119C52.9536 16.3079 52.7069 17.364 52.7069 18.5798C52.7069 19.78 52.9453 20.772 53.4223 21.5559C53.9157 22.324 54.5406 22.8999 55.2972 23.2839ZM55.6179 14.356C56.0784 13.7639 56.7363 13.468 57.5915 13.468C58.348 13.468 58.8907 13.7 59.2197 14.1638C59.5486 14.6279 59.7624 15.2039 59.8611 15.8918L54.7544 16.54C54.8696 15.676 55.1574 14.948 55.6179 14.356ZM64.1761 22.948V23.5H69.9735V22.948C69.3157 22.9319 68.8141 22.884 68.4687 22.804C68.1398 22.7239 67.9177 22.5559 67.8026 22.3C67.6875 22.0439 67.6299 21.636 67.6299 21.0759V15.916C68.0575 15.4041 68.4851 15.0359 68.9127 14.812C69.3403 14.5879 69.8255 14.4758 70.3683 14.4758C70.7959 14.4758 71.1248 14.6118 71.355 14.884C71.6017 15.1399 71.758 15.5959 71.8238 16.252H72.3912C72.5227 15.0679 72.5227 13.884 72.3912 12.7C71.5031 12.636 70.6478 12.772 69.8255 13.1079C69.0196 13.4438 68.2795 14.0999 67.6052 15.0759H67.5559C67.5559 14.5159 67.5723 14.0039 67.6052 13.54C67.6546 13.0598 67.6957 12.748 67.7286 12.604L67.5806 12.46L63.6087 14.26L63.8554 14.812C64.0363 14.7319 64.209 14.676 64.3735 14.644C64.5544 14.5959 64.7353 14.572 64.9162 14.572C65.1465 14.572 65.3274 14.636 65.459 14.7639C65.5905 14.8918 65.6563 15.1638 65.6563 15.5798V21.0759C65.6563 21.636 65.607 22.0439 65.5083 22.3C65.4261 22.5559 65.2781 22.7239 65.0642 22.804C64.8504 22.884 64.5544 22.9319 64.1761 22.948ZM76.3291 23.2839C77.1021 23.668 77.908 23.8599 78.7467 23.8599C79.75 23.8599 80.6299 23.6199 81.3864 23.1399C82.1594 22.6599 82.7761 22.0359 83.2366 21.2678L82.8419 20.884C82.3978 21.2839 81.8962 21.6199 81.337 21.8918C80.7779 22.1479 80.1693 22.2759 79.5115 22.2759C78.3602 22.2759 77.4392 21.8599 76.7485 21.0278C76.0577 20.196 75.7123 19.0439 75.7123 17.572V17.3079L83.1133 16.3718C83.1133 15.5078 82.9241 14.7959 82.5459 14.2358C82.184 13.676 81.6989 13.26 81.0903 12.988C80.4983 12.7158 79.8486 12.5798 79.1414 12.5798C78.1711 12.5798 77.2748 12.8279 76.4524 13.324C75.6301 13.8198 74.9723 14.5159 74.4789 15.4119C73.9855 16.3079 73.7388 17.364 73.7388 18.5798C73.7388 19.78 73.9772 20.772 74.4542 21.5559C74.9476 22.324 75.5725 22.8999 76.3291 23.2839ZM76.6498 14.356C77.1103 13.7639 77.7682 13.468 78.6234 13.468C79.3799 13.468 79.9226 13.7 80.2516 14.1638C80.5805 14.6279 80.7943 15.2039 80.893 15.8918L75.7863 16.54C75.9015 15.676 76.1893 14.948 76.6498 14.356ZM96.0135 22.3C95.9148 22.0439 95.8655 21.636 95.8655 21.0759V15.3398C95.8655 14.5078 95.6599 13.844 95.2487 13.3479C94.8376 12.8359 94.1057 12.5798 93.0531 12.5798C92.1979 12.5798 91.4003 12.7878 90.6602 13.2039C89.9365 13.604 89.2622 14.124 88.6372 14.7639H88.5879C88.5879 14.3 88.6043 13.8599 88.6372 13.4438C88.6866 13.0278 88.7277 12.748 88.7606 12.604L88.6126 12.46L84.6407 14.26L84.8874 14.812C85.0684 14.7319 85.241 14.676 85.4055 14.644C85.5864 14.5959 85.7673 14.572 85.9482 14.572C86.1785 14.572 86.3594 14.644 86.491 14.7878C86.6225 14.916 86.6883 15.196 86.6883 15.6279V21.0759C86.6883 21.636 86.639 22.0439 86.5403 22.3C86.4581 22.5559 86.3101 22.7239 86.0963 22.804C85.8824 22.884 85.5864 22.9319 85.2081 22.948V23.5H90.7588V22.948C90.1832 22.9319 89.7392 22.884 89.4267 22.804C89.1306 22.7239 88.9251 22.5559 88.8099 22.3C88.7113 22.0439 88.6619 21.636 88.6619 21.0759V15.5078C89.2869 15.0278 89.8954 14.676 90.4875 14.4519C91.0795 14.228 91.6469 14.116 92.1897 14.116C92.8147 14.116 93.2505 14.2759 93.4972 14.5959C93.7603 14.916 93.8919 15.356 93.8919 15.916V21.0759C93.8919 21.636 93.8426 22.0439 93.7439 22.3C93.6452 22.5559 93.489 22.7239 93.2752 22.804C93.0613 22.884 92.7735 22.9319 92.4117 22.948V23.5H97.9624V22.948C97.3868 22.9319 96.9427 22.884 96.6302 22.804C96.3342 22.7239 96.1286 22.5559 96.0135 22.3ZM103.194 22.3C103.079 22.0439 103.021 21.636 103.021 21.0759V15.6279C103.021 14.8599 103.029 14.196 103.046 13.636C103.079 13.0759 103.103 12.7319 103.12 12.604L102.972 12.46L98.7038 14.356L98.9505 14.908C99.1479 14.8279 99.3617 14.7559 99.592 14.6919C99.8386 14.6118 100.069 14.572 100.283 14.572C100.513 14.572 100.694 14.644 100.825 14.7878C100.973 14.916 101.047 15.2039 101.047 15.6519V21.0759C101.047 21.636 100.998 22.0439 100.899 22.3C100.801 22.5559 100.645 22.7239 100.431 22.804C100.217 22.884 99.9291 22.9319 99.5673 22.948V23.5H105.118V22.948C104.559 22.9319 104.123 22.884 103.81 22.804C103.514 22.7239 103.309 22.5559 103.194 22.3ZM101.121 9.84399C101.368 10.084 101.672 10.2039 102.034 10.2039C102.396 10.2039 102.7 10.084 102.947 9.84399C103.194 9.604 103.317 9.30786 103.317 8.95581C103.317 8.61987 103.194 8.33203 102.947 8.09204C102.7 7.85205 102.396 7.73193 102.034 7.73193C101.672 7.73193 101.368 7.85205 101.121 8.09204C100.875 8.33203 100.751 8.61987 100.751 8.95581C100.751 9.30786 100.875 9.604 101.121 9.84399ZM113.899 21.7959L113.505 21.4119C113.126 21.7639 112.756 22.0278 112.394 22.2039C112.033 22.364 111.679 22.4438 111.334 22.4438C110.742 22.4438 110.347 22.26 110.149 21.8918C109.969 21.5239 109.878 21.084 109.878 20.572V14.668C109.878 14.396 109.936 14.2039 110.051 14.092C110.166 13.98 110.363 13.9238 110.643 13.9238H113.529V12.9399H109.878C109.878 12.332 109.886 11.7239 109.903 11.116C109.919 10.5078 109.952 9.8999 110.001 9.29199L107.905 9.65186V12.9399H106.202V13.9238H107.905V21.0759C107.905 21.572 107.987 22.0359 108.151 22.468C108.316 22.884 108.587 23.22 108.965 23.4758C109.36 23.7319 109.886 23.8599 110.544 23.8599C111.367 23.8599 112.033 23.6599 112.542 23.26C113.052 22.8599 113.505 22.3718 113.899 21.7959ZM114.893 28.6118C115.222 28.9639 115.666 29.1399 116.225 29.1399C117.015 29.1399 117.697 28.8599 118.273 28.3C118.865 27.74 119.433 26.8999 119.975 25.78C120.534 24.6599 121.159 23.2678 121.85 21.604L124.49 15.292C124.704 14.78 124.893 14.4041 125.057 14.1638C125.238 13.908 125.427 13.74 125.625 13.6599C125.822 13.564 126.044 13.5078 126.291 13.4919V12.9399H121.899V13.4919C122.771 13.5239 123.322 13.644 123.552 13.8521C123.783 14.0598 123.733 14.54 123.404 15.292L121.11 20.812H121.061L118.594 15.292C118.38 14.78 118.257 14.4041 118.224 14.1638C118.191 13.908 118.281 13.74 118.495 13.6599C118.725 13.564 119.112 13.5078 119.655 13.4919V12.9399H114.4V13.4919C114.696 13.5078 114.943 13.5559 115.14 13.636C115.354 13.7158 115.551 13.876 115.732 14.116C115.929 14.356 116.151 14.748 116.398 15.292L120.074 23.3079C119.367 24.7 118.742 25.7559 118.199 26.4758C117.673 27.2119 117.163 27.5798 116.669 27.5798C116.225 27.5798 115.905 27.4119 115.707 27.0759C115.51 26.74 115.387 26.228 115.337 25.54H114.77C114.655 25.8279 114.564 26.1079 114.499 26.3799C114.433 26.6519 114.4 26.9238 114.4 27.196C114.4 27.804 114.564 28.2759 114.893 28.6118ZM138.393 23.6919C138.952 23.804 139.462 23.8599 139.923 23.8599C140.992 23.8599 141.938 23.668 142.76 23.2839C143.599 22.8999 144.248 22.356 144.709 21.6519C145.186 20.9319 145.424 20.0759 145.424 19.084C145.424 18.1719 145.235 17.4199 144.857 16.8279C144.478 16.2358 143.985 15.74 143.377 15.3398C142.784 14.9399 142.143 14.5879 141.452 14.2839C140.778 13.98 140.137 13.676 139.528 13.3718C138.936 13.0679 138.451 12.708 138.073 12.292C137.694 11.876 137.505 11.3479 137.505 10.708C137.505 10.2759 137.612 9.86792 137.826 9.48389C138.056 9.08398 138.418 8.76392 138.911 8.52393C139.421 8.26782 140.079 8.13989 140.885 8.13989C142.036 8.13989 142.875 8.41187 143.401 8.95581C143.928 9.5 144.24 10.2839 144.339 11.3079H144.906V7.82788C144.528 7.68384 144.026 7.54004 143.401 7.396C142.793 7.25195 142.012 7.17993 141.058 7.17993C139.972 7.17993 139.026 7.36401 138.221 7.73193C137.415 8.09985 136.79 8.61182 136.346 9.26782C135.902 9.90796 135.68 10.6599 135.68 11.5239C135.68 12.356 135.869 13.0439 136.247 13.5879C136.625 14.1318 137.11 14.5879 137.703 14.9558C138.311 15.324 138.944 15.6599 139.602 15.9639C140.276 16.252 140.91 16.564 141.502 16.8999C142.11 17.22 142.604 17.6199 142.982 18.0999C143.36 18.564 143.549 19.1638 143.549 19.8999C143.549 20.4119 143.434 20.8999 143.204 21.364C142.99 21.812 142.636 22.1799 142.143 22.468C141.666 22.7559 141.025 22.8999 140.219 22.8999C139.051 22.8999 138.089 22.5479 137.332 21.844C136.576 21.1399 136.165 20.1799 136.099 18.9639H135.532C135.4 19.188 135.293 19.4758 135.211 19.8279C135.129 20.1799 135.088 20.5159 135.088 20.8359C135.088 21.4119 135.244 21.8999 135.556 22.3C135.885 22.6838 136.296 22.988 136.79 23.2119C137.3 23.436 137.834 23.5959 138.393 23.6919ZM147.369 28.6118C147.698 28.9639 148.142 29.1399 148.701 29.1399C149.491 29.1399 150.173 28.8599 150.749 28.3C151.341 27.74 151.908 26.8999 152.451 25.78C153.01 24.6599 153.635 23.2678 154.326 21.604L156.965 15.292C157.179 14.78 157.368 14.4041 157.533 14.1638C157.714 13.908 157.903 13.74 158.1 13.6599C158.298 13.564 158.52 13.5078 158.766 13.4919V12.9399H154.375V13.4919C155.247 13.5239 155.798 13.644 156.028 13.8521C156.258 14.0598 156.209 14.54 155.88 15.292L153.586 20.812H153.536L151.069 15.292C150.856 14.78 150.732 14.4041 150.699 14.1638C150.666 13.908 150.757 13.74 150.971 13.6599C151.201 13.564 151.587 13.5078 152.13 13.4919V12.9399H146.876V13.4919C147.172 13.5078 147.418 13.5559 147.616 13.636C147.829 13.7158 148.027 13.876 148.208 14.116C148.405 14.356 148.627 14.748 148.874 15.292L152.55 23.3079C151.842 24.7 151.217 25.7559 150.675 26.4758C150.148 27.2119 149.639 27.5798 149.145 27.5798C148.701 27.5798 148.38 27.4119 148.183 27.0759C147.986 26.74 147.862 26.228 147.813 25.54H147.246C147.13 25.8279 147.04 26.1079 146.974 26.3799C146.908 26.6519 146.876 26.9238 146.876 27.196C146.876 27.804 147.04 28.2759 147.369 28.6118ZM160.658 23.2119C161.283 23.644 162.179 23.8599 163.347 23.8599C164.63 23.8599 165.699 23.572 166.554 22.9958C167.409 22.4199 167.837 21.5959 167.837 20.5239C167.837 19.9319 167.689 19.4438 167.393 19.0598C167.113 18.6599 166.743 18.332 166.282 18.0759C165.838 17.804 165.361 17.572 164.852 17.3799C164.358 17.1719 163.881 16.9639 163.421 16.7559C162.977 16.5479 162.607 16.3079 162.311 16.0359C162.031 15.748 161.891 15.3879 161.891 14.9558C161.891 14.4919 162.064 14.116 162.409 13.8279C162.755 13.54 163.265 13.396 163.939 13.396C164.63 13.396 165.23 13.5959 165.74 13.9958C166.25 14.3799 166.562 15.0439 166.677 15.988H167.245V13.228C166.784 12.9719 166.291 12.804 165.764 12.7239C165.238 12.6279 164.72 12.5798 164.21 12.5798C162.911 12.5798 161.899 12.876 161.176 13.468C160.452 14.0598 160.09 14.7959 160.09 15.676C160.09 16.2358 160.23 16.7 160.51 17.0679C160.806 17.436 161.176 17.748 161.62 18.0039C162.08 18.2439 162.566 18.468 163.075 18.676C163.585 18.8679 164.062 19.0759 164.506 19.3C164.967 19.5078 165.337 19.7559 165.616 20.0439C165.912 20.332 166.06 20.7 166.06 21.1479C166.06 21.644 165.863 22.084 165.468 22.468C165.074 22.8521 164.465 23.0439 163.643 23.0439C162.722 23.0439 162.047 22.772 161.62 22.228C161.192 21.6838 160.97 20.8999 160.954 19.876H160.386C160.14 20.1638 159.967 20.46 159.868 20.7639C159.77 21.052 159.72 21.3159 159.72 21.5559C159.72 22.228 160.033 22.78 160.658 23.2119ZM177.116 21.7959L176.721 21.4119C176.343 21.7639 175.973 22.0278 175.611 22.2039C175.249 22.364 174.895 22.4438 174.55 22.4438C173.958 22.4438 173.563 22.26 173.366 21.8918C173.185 21.5239 173.094 21.084 173.094 20.572V14.668C173.094 14.396 173.152 14.2039 173.267 14.092C173.382 13.98 173.58 13.9238 173.859 13.9238H176.746V12.9399H173.094C173.094 12.332 173.103 11.7239 173.119 11.116C173.136 10.5078 173.168 9.8999 173.218 9.29199L171.121 9.65186V12.9399H169.419V13.9238H171.121V21.0759C171.121 21.572 171.203 22.0359 171.368 22.468C171.532 22.884 171.803 23.22 172.182 23.4758C172.576 23.7319 173.103 23.8599 173.76 23.8599C174.583 23.8599 175.249 23.6599 175.759 23.26C176.269 22.8599 176.721 22.3718 177.116 21.7959ZM181.465 23.2839C182.238 23.668 183.043 23.8599 183.882 23.8599C184.886 23.8599 185.765 23.6199 186.522 23.1399C187.295 22.6599 187.912 22.0359 188.372 21.2678L187.977 20.884C187.533 21.2839 187.032 21.6199 186.473 21.8918C185.913 22.1479 185.305 22.2759 184.647 22.2759C183.496 22.2759 182.575 21.8599 181.884 21.0278C181.193 20.196 180.848 19.0439 180.848 17.572V17.3079L188.249 16.3718C188.249 15.5078 188.06 14.7959 187.681 14.2358C187.32 13.676 186.834 13.26 186.226 12.988C185.634 12.7158 184.984 12.5798 184.277 12.5798C183.307 12.5798 182.41 12.8279 181.588 13.324C180.766 13.8198 180.108 14.5159 179.614 15.4119C179.121 16.3079 178.874 17.364 178.874 18.5798C178.874 19.78 179.113 20.772 179.59 21.5559C180.083 22.324 180.708 22.8999 181.465 23.2839ZM181.785 14.356C182.246 13.7639 182.904 13.468 183.759 13.468C184.515 13.468 185.058 13.7 185.387 14.1638C185.716 14.6279 185.93 15.2039 186.029 15.8918L180.922 16.54C181.037 15.676 181.325 14.948 181.785 14.356ZM190.344 22.948V23.5H195.648V22.948C195.154 22.9319 194.776 22.884 194.513 22.804C194.25 22.7239 194.061 22.5559 193.945 22.3C193.847 22.0439 193.797 21.636 193.797 21.0759V15.5078C194.965 14.5798 196.059 14.116 197.079 14.116C197.704 14.116 198.139 14.2759 198.386 14.5959C198.649 14.916 198.781 15.356 198.781 15.916V21.0759C198.781 21.636 198.731 22.0439 198.633 22.3C198.534 22.5559 198.378 22.7239 198.164 22.804C197.95 22.884 197.662 22.9319 197.301 22.948V23.5H202.629V22.948C202.136 22.9319 201.749 22.884 201.47 22.804C201.207 22.7239 201.017 22.5559 200.902 22.3C200.804 22.0439 200.754 21.636 200.754 21.0759V15.5078C201.955 14.5798 203.049 14.116 204.035 14.116C204.66 14.116 205.096 14.2759 205.343 14.5959C205.606 14.916 205.738 15.356 205.738 15.916V21.0759C205.738 21.636 205.688 22.0439 205.59 22.3C205.491 22.5559 205.335 22.7239 205.121 22.804C204.907 22.884 204.619 22.9319 204.257 22.948V23.5H209.808V22.948C209.249 22.9319 208.813 22.884 208.501 22.804C208.205 22.7239 207.999 22.5559 207.884 22.3C207.769 22.0439 207.711 21.636 207.711 21.0759V15.3398C207.711 14.5078 207.506 13.844 207.094 13.3479C206.683 12.8359 205.951 12.5798 204.899 12.5798C204.06 12.5798 203.304 12.78 202.629 13.1799C201.971 13.5798 201.338 14.116 200.73 14.7878C200.647 14.116 200.393 13.5798 199.965 13.1799C199.537 12.78 198.863 12.5798 197.942 12.5798C197.087 12.5798 196.33 12.7878 195.672 13.2039C195.031 13.604 194.398 14.124 193.773 14.7639H193.723C193.723 14.3 193.74 13.8599 193.773 13.4438C193.822 13.0278 193.863 12.748 193.896 12.604L193.748 12.46L189.776 14.26L190.023 14.812C190.204 14.7319 190.377 14.676 190.541 14.644C190.722 14.5959 190.903 14.572 191.084 14.572C191.314 14.572 191.495 14.644 191.627 14.7878C191.758 14.916 191.824 15.196 191.824 15.6279V21.0759C191.824 21.636 191.775 22.0439 191.676 22.3C191.594 22.5559 191.446 22.7239 191.232 22.804C191.018 22.884 190.722 22.9319 190.344 22.948ZM212.19 23.2119C212.815 23.644 213.711 23.8599 214.879 23.8599C216.162 23.8599 217.231 23.572 218.086 22.9958C218.941 22.4199 219.369 21.5959 219.369 20.5239C219.369 19.9319 219.221 19.4438 218.925 19.0598C218.645 18.6599 218.275 18.332 217.815 18.0759C217.37 17.804 216.894 17.572 216.384 17.3799C215.89 17.1719 215.413 16.9639 214.953 16.7559C214.509 16.5479 214.139 16.3079 213.843 16.0359C213.563 15.748 213.423 15.3879 213.423 14.9558C213.423 14.4919 213.596 14.116 213.941 13.8279C214.287 13.54 214.797 13.396 215.471 13.396C216.162 13.396 216.762 13.5959 217.272 13.9958C217.782 14.3799 218.094 15.0439 218.209 15.988H218.777V13.228C218.316 12.9719 217.823 12.804 217.296 12.7239C216.77 12.6279 216.252 12.5798 215.742 12.5798C214.443 12.5798 213.432 12.876 212.708 13.468C211.984 14.0598 211.622 14.7959 211.622 15.676C211.622 16.2358 211.762 16.7 212.042 17.0679C212.338 17.436 212.708 17.748 213.152 18.0039C213.612 18.2439 214.098 18.468 214.607 18.676C215.117 18.8679 215.594 19.0759 216.038 19.3C216.499 19.5078 216.869 19.7559 217.148 20.0439C217.444 20.332 217.592 20.7 217.592 21.1479C217.592 21.644 217.395 22.084 217 22.468C216.606 22.8521 215.997 23.0439 215.175 23.0439C214.254 23.0439 213.58 22.772 213.152 22.228C212.724 21.6838 212.502 20.8999 212.486 19.876H211.918C211.672 20.1638 211.499 20.46 211.4 20.7639C211.302 21.052 211.252 21.3159 211.252 21.5559C211.252 22.228 211.565 22.78 212.19 23.2119Z" fill="#000000" fill-opacity="0.9"/>
</svg>
